<mxfile host="app.diagrams.net" modified="2024-02-27T15:30:15.166Z" agent="Mozilla/5.0 (Macintosh; Intel Mac OS X 10_15_7) AppleWebKit/605.1.15 (KHTML, like Gecko) Version/15.6 Safari/605.1.15" etag="o0JkLaUPT9YLfy40EB8w" version="23.1.5" type="github">
  <diagram name="Page-1" id="ud2-X6ulQJBtx6JnMmzM">
    <mxGraphModel dx="1152" dy="610" grid="1" gridSize="10" guides="1" tooltips="1" connect="1" arrows="1" fold="1" page="1" pageScale="1" pageWidth="827" pageHeight="1169" math="0" shadow="0">
      <root>
        <mxCell id="0" />
        <mxCell id="1" parent="0" />
      </root>
    </mxGraphModel>
  </diagram>
</mxfile>
